<?xml version="1.0" encoding="utf-8"?>
<!-- Generator: Adobe Illustrator 16.0.4, SVG Export Plug-In . SVG Version: 6.00 Build 0)  -->
<!DOCTYPE svg PUBLIC "-//W3C//DTD SVG 1.1//EN" "http://www.w3.org/Graphics/SVG/1.1/DTD/svg11.dtd">
<svg version="1.1" xmlns="http://www.w3.org/2000/svg" xmlns:xlink="http://www.w3.org/1999/xlink" x="0px" y="0px" width="100px"
	 height="100px" viewBox="0 0 100 100" enable-background="new 0 0 100 100" xml:space="preserve">
<g id="Layer_2">
	<path fill="#FFFFFF" d="M93.25,81.25c0,6.627-5.373,12-12,12h-62.5c-6.627,0-12-5.373-12-12v-61.5c0-6.627,5.373-12,12-12h62.5
		c6.627,0,12,5.373,12,12V81.25z"/>
</g>
<g id="Layer_1">
	<g id="White_1_">
		<path d="M82.025,14H17.974C15.779,14,14,15.779,14,17.974v64.053C14,84.221,15.779,86,17.974,86h34.483V58.118h-9.383V47.252
			h9.383v-8.014c0-9.3,5.68-14.363,13.977-14.363c3.974,0,7.389,0.295,8.385,0.428v9.719l-5.754,0.003
			c-4.513,0-5.385,2.144-5.385,5.29v6.938h10.76l-1.401,10.866H63.68V86h18.348C84.221,86,86,84.221,86,82.025V17.974
			C86,15.779,84.221,14,82.025,14z"/>
	</g>
</g>
</svg>
